HIERARCHY
ROOT pelvis
{
  OFFSET 0 100 0
  CHANNELS 6 Xposition Yposition Zposition Zrotation Xrotation Yrotation
  JOINT pelvis_right_femur
  {
    OFFSET -10.78128 -3.44521 -0.5502486
    CHANNELS 3 Zrotation Xrotation Yrotation
    JOINT right_femur_tibia
    {
      OFFSET -0.8047443 -44.0398 -0.1307829
      CHANNELS 3 Zrotation Xrotation Yrotation
      JOINT right_tibia_foot
      {
        OFFSET 3.006224 -47.83518 -5
        CHANNELS 3 Zrotation Xrotation Yrotation
        End Site
        {
          OFFSET 0 -5 15
        }
      }
    }
  }
  JOINT pelvis_left_femur
  {
    OFFSET 10.78128 -3.44521 -0.5502486
    CHANNELS 3 Zrotation Xrotation Yrotation
    JOINT left_femur_tibia
    {
      OFFSET 0.8047443 -44.0398 -0.1307829
      CHANNELS 3 Zrotation Xrotation Yrotation
      JOINT left_tibia_foot
      {
        OFFSET -4.370144 -48.10324 -4.275266
        CHANNELS 3 Zrotation Xrotation Yrotation
        End Site
        {
          OFFSET 0 -5 15
        }
      }
    }
  }
  JOINT pelvis_spine1
  {
    OFFSET 0 6.468898 -3.129235
    CHANNELS 3 Zrotation Xrotation Yrotation
    JOINT spine1
    {
      OFFSET 0 23.15396 4.99043
      CHANNELS 3 Zrotation Xrotation Yrotation
      JOINT spine2
      {
        OFFSET 0 20.79997 -5.064912
        CHANNELS 3 Zrotation Xrotation Yrotation
        JOINT neck
        {
          OFFSET 0 14.38658 9.616178
          CHANNELS 3 Zrotation Xrotation Yrotation
          End Site
          {
            OFFSET 0 20 0
          }
        }
      }
      JOINT right_manubrium
      {
        OFFSET -5.722621 16.35077 3.967754
        CHANNELS 3 Zrotation Xrotation Yrotation
        JOINT right_clavicle
        {
          OFFSET -13.16364 1.694482 -4.693211
          CHANNELS 3 Zrotation Xrotation Yrotation
          JOINT right_humerus
          {
            OFFSET -28.5034 -0.3100689 -2.792744
            CHANNELS 3 Zrotation Xrotation Yrotation
            JOINT right_radius
            {
              OFFSET -25.15693 0.02248979 -1.271978
              CHANNELS 3 Zrotation Xrotation Yrotation
              End Site
              {
                OFFSET -15 0 0
              }
            }
          }
        }
      }
      JOINT left_manubrium
      {
        OFFSET 5.722621 16.35077 3.967754
        CHANNELS 3 Zrotation Xrotation Yrotation
        JOINT left_clavicle
        {
          OFFSET 13.16364 1.694482 -4.693211
          CHANNELS 3 Zrotation Xrotation Yrotation
          JOINT left_humerus
          {
            OFFSET 29.39168 -1.063119 -2.237045
            CHANNELS 3 Zrotation Xrotation Yrotation
            JOINT left_radius
            {
              OFFSET 24.59957 -0.9528479 0.9047498
              CHANNELS 3 Zrotation Xrotation Yrotation
              End Site
              {
                OFFSET 15 -0 -0
              }
            }
          }
        }
      }
    }
  }
}
MOTION
Frames: 19
Frame Time: 0.0416666666667
0 103.5113 0 2.185773 -2.081993 0.0842423 1.400314 -11.69592 7.532175 -0 36.04155 -0 -5.272263 -19.19191 -3.448216 -7.730523 11.87303 -23.95025 -0 4.705841 -0 7.021932 -16.54692 25.81054 -2.590145 -3.458971 4.74953 3.296794 9.687294 -8.116097 1.323991 21.40289 6.269997 2.294309 -26.11245 9.65337 5.923742 -19.16542 11.29165 86.43166 34.6551 -20.74866 -0 0 14.93334 -6.693989 8.502351 3.902342 5.885554 -20.38683 -0.8547623 -94.79468 25.77363 23.2424 0 0 -14.45541 8.65937 16.42887 3.755172
0.23484 103.9567 1.305071 1.593852 -1.425133 0.04235525 2.265985 -13.26637 8.475388 -0 36.99589 -0 -5.329483 -18.35514 -3.831311 -7.28908 11.62183 -23.89997 -0 4.82325 -0 5.773736 -17.5479 25.6478 -2.6422 -3.566175 4.713695 3.383119 9.637321 -8.238758 1.349943 21.31736 6.301399 2.298683 -26.29333 9.749796 5.910912 -19.24706 11.29382 86.47589 34.46767 -20.95491 -0 0 15.13696 -6.456411 8.404569 3.694851 6.030958 -20.47405 -0.7271742 -94.90262 25.8288 23.27398 0 0 -14.52219 8.727172 16.59249 3.682766
0.5357858 103.81 3.623699 0.9845017 -0.3030716 0.003428277 3.308603 -22.32554 4.986727 -0 26.80574 -0 -6.435688 -11.23371 -1.935868 -7.051274 12.37296 -20.01506 -0 4.617708 -0 8.333386 -19.02794 24.00765 -2.485094 -3.420351 4.635729 3.610739 9.588161 -8.542669 1.362798 20.80807 6.591896 2.569014 -27.00677 9.971494 5.838628 -19.29963 11.36594 86.8673 34.55789 -21.66098 -0 0 15.0405 -5.710642 8.231584 3.346393 6.41794 -20.92267 -0.6010973 -94.61246 25.743 22.96128 0 0 -16.25878 9.359294 16.1059 3.311823
0.8390153 103.5644 6.143266 0.6761979 0.6057274 0.003560803 4.047666 -25.09431 5.275346 -0 24.68243 -0 -6.245531 -9.819768 -1.784906 -6.954271 12.38329 -19.45772 -0 4.797756 -0 8.839968 -19.58585 23.9232 -2.329631 -3.225975 4.587344 3.696656 9.579432 -8.659046 1.354298 20.49159 6.799691 2.775729 -27.35668 10.07006 5.790444 -19.25219 11.41657 87.08851 34.78959 -21.95204 -0 0 14.7896 -5.462837 8.253388 3.309027 6.622109 -21.17859 -0.5798145 -94.20097 25.47251 22.55878 0 0 -17.45902 9.898462 15.60263 2.90701
1.141451 103.1904 9.253779 0.3393223 1.722011 0.1328426 4.964327 -29.45015 4.73727 -0 19.95451 -0 -6.312169 -6.706261 -1.135186 -6.890251 12.96874 -18.04016 -0 5.859342 -0 9.964984 -20.00039 23.15536 -2.118022 -2.962475 4.538903 3.784129 9.593067 -8.768141 1.313959 20.16062 7.023114 3.002448 -27.70065 10.12372 5.725875 -19.15396 11.47359 87.41592 35.10973 -22.34854 -0 0 14.32243 -5.225715 8.273828 3.345614 6.758662 -21.45328 -0.6837051 -93.68886 25.28014 22.12379 0 0 -19.01116 10.31636 14.87148 2.709817
1.437708 102.8044 12.80628 -0.01975132 2.542172 0.4081793 5.802744 -32.05732 4.702609 -0 17.42814 -0 -6.409331 -4.732801 -0.7998917 -6.743007 13.44947 -17.23864 -0 7.21604 -0 10.08542 -20.16851 22.32699 -1.925217 -2.717567 4.498398 3.826143 9.625673 -8.824919 1.266035 19.92477 7.189916 3.180324 -27.88394 10.11566 5.674718 -19.02382 11.52041 87.69977 35.39815 -22.64696 -0 0 13.82256 -5.168526 8.351994 3.465956 6.817145 -21.65514 -0.8321614 -93.19111 25.08649 21.69779 0 0 -20.27571 10.58952 14.19508 2.614225
1.710742 102.5114 17.04927 -0.5209388 3.273548 0.8959252 6.697183 -34.27867 4.331812 -0 14.71917 -0 -6.728909 -2.368105 -0.4515341 -6.43079 14.32371 -15.99414 -0 10.01074 -0 9.118797 -19.99482 20.44728 -1.705482 -2.447515 4.470435 3.835192 9.699185 -8.853984 1.195529 19.7389 7.319959 3.340384 -27.94534 10.02216 5.630423 -18.84507 11.57006 88.03473 35.68553 -22.9742 -0 0 13.19313 -5.244593 8.473469 3.67231 6.79028 -21.84105 -1.082395 -92.66646 24.954 21.2788 0 0 -21.53444 10.65847 13.43504 2.764356
1.957138 102.3914 21.99737 -1.071566 3.743558 1.542714 7.451091 -35.09039 3.994462 -0 12.92491 -0 -7.04058 -0.5685193 -0.3356608 -5.985623 15.13958 -14.69064 -0 13.96076 -0 6.955887 -19.28901 17.98986 -1.514865 -2.21383 4.459362 3.806971 9.796309 -8.854033 1.123653 19.63397 7.390546 3.455196 -27.87086 9.869517 5.604058 -18.66293 11.6149 88.32638 35.89681 -23.23131 -0 0 12.61191 -5.46337 8.630118 3.919338 6.710679 -21.98014 -1.347737 -92.21596 24.85935 20.92496 0 0 -22.47634 10.56088 12.7775 3.053798
2.170166 102.5649 27.71666 -1.667188 3.880614 2.231597 8.122502 -34.26088 3.739679 -0 11.84857 -0 -7.257783 0.8678752 -0.4988428 -5.364369 15.66802 -13.06412 -0 20.16504 -0 3.594617 -17.51765 14.9043 -1.362391 -2.01284 4.480195 3.726394 9.925807 -8.803287 1.053186 19.6354 7.386557 3.516423 -27.63405 9.647976 5.605162 -18.48598 11.65479 88.53611 36.04445 -23.35207 -0 0 12.11585 -5.84389 8.821541 4.216923 6.556448 -22.04805 -1.62434 -91.882 24.81684 20.68852 0 0 -22.98797 10.27891 12.25758 3.492303
2.352143 103.1097 34.08417 -2.103144 3.37331 2.73089 8.55818 -31.47837 3.738263 -0 11.73731 -0 -7.21248 1.69471 -1.009508 -4.670983 15.29554 -11.27736 -0 28.48246 -0 0.03762911 -14.5619 12.18348 -1.281079 -1.867247 4.546017 3.590927 10.07177 -8.680965 0.9958287 19.76922 7.296937 3.507094 -27.25029 9.385602 5.639685 -18.35132 11.68256 88.5825 36.13495 -23.2323 -0 0 11.81174 -6.344679 9.012743 4.539654 6.32404 -22.00121 -1.867338 -91.75276 24.84477 20.66146 0 0 -22.89044 9.846555 11.9771 4.010777
2.498406 104.1089 40.84788 -2.214788 1.938099 2.802202 8.667034 -26.6499 4.023339 -0 12.49207 -0 -6.895843 1.730187 -1.832811 -3.979819 13.36328 -9.460821 -0 38.84703 -0 -2.805513 -10.69453 10.62663 -1.296904 -1.791487 4.673103 3.392 10.21918 -8.454759 0.9543041 20.06948 7.108775 3.408275 -26.71764 9.095407 5.70852 -18.28671 11.68989 88.38748 36.1964 -22.75954 -0 0 11.76442 -6.952974 9.171716 4.896336 5.987929 -21.78705 -2.058309 -91.89722 24.97293 20.93724 0 0 -22.04184 9.261425 11.99678 4.585504
2.595964 105.5652 47.64294 -1.852779 -0.4388852 2.367533 8.268187 -20.24506 4.361067 -0 13.41687 -0 -6.396848 0.7405625 -2.774831 -3.425614 9.506561 -7.907194 -0 49.44035 -0 -4.260967 -7.125384 10.72757 -1.427493 -1.807614 4.860242 3.139699 10.3388 -8.123864 0.9197042 20.53225 6.834216 3.215285 -26.06355 8.793975 5.791281 -18.31452 11.66979 87.92285 36.24741 -21.90735 -0 0 11.98902 -7.670017 9.269884 5.312062 5.550334 -21.39282 -2.193154 -92.31195 25.22562 21.54068 0 0 -20.50445 8.509253 12.30014 5.223847
2.636185 107.3525 54.13972 -1.093471 -3.185858 1.600981 7.370317 -12.97591 4.500468 -0 13.65942 -0 -5.914693 -1.358995 -3.491471 -3.016219 3.766311 -6.840444 -0 57.64017 -0 -4.576851 -4.954103 12.12663 -1.683713 -1.927536 5.090025 2.84996 10.40103 -7.706861 0.8696108 21.13146 6.50325 2.936764 -25.2994 8.480176 5.849703 -18.43612 11.62052 87.19817 36.29567 -20.69652 -0 0 12.43424 -8.580326 9.312156 5.863636 5.024652 -20.8359 -2.291125 -92.89184 25.59022 22.38943 0 0 -18.49904 7.554868 12.77474 5.959638
2.632925 109.1678 60.19598 -0.2024656 -5.388301 0.7725955 6.231627 -5.79282 4.329722 -0 12.78429 -0 -5.583027 -4.143035 -3.669847 -2.583424 -3.12545 -6.20437 -0 60.73392 -0 -4.41702 -4.445465 14.04655 -2.042882 -2.111889 5.336527 2.549511 10.39634 -7.254245 0.7702485 21.77798 6.184694 2.628795 -24.46097 8.135091 5.835366 -18.63246 11.56271 86.2868 36.36231 -19.22625 -0 0 12.9774 -9.810498 9.337599 6.662361 4.452628 -20.20108 -2.391648 -93.41392 26.00148 23.28847 0 0 -16.51671 6.3929 13.15559 6.839437
2.623797 110.6334 65.86986 0.4746135 -6.502508 0.01483241 5.273556 0.5630666 3.948878 -0 11.1724 -0 -5.424298 -7.03155 -3.270844 -1.841002 -10.10968 -5.66172 -0 57.80106 -0 -4.265542 -4.875158 15.85142 -2.452785 -2.267053 5.603499 2.24746 10.34559 -6.802287 0.6015278 22.34961 5.956828 2.38345 -23.60205 7.733473 5.715083 -18.89561 11.53659 85.23008 36.4965 -17.5273 -0 0 13.54852 -11.48461 9.405246 7.81394 3.891843 -19.59278 -2.504146 -93.66646 26.32687 24.06656 0 0 -15.02459 5.119808 13.15697 7.832086
2.649629 111.4743 71.30825 0.7020988 -6.708209 -0.6821568 4.802815 5.731181 3.499331 -0 9.548845 -0 -5.352854 -9.711498 -2.586487 -0.6517756 -16.12564 -4.899318 -0 50.10135 -0 -4.198974 -5.428502 17.31114 -2.833589 -2.291203 5.937877 1.927712 10.29571 -6.369829 0.3798033 22.7075 5.875505 2.30112 -22.7936 7.262709 5.481595 -19.25219 11.58873 84.02954 36.70444 -15.58026 -0 0 14.21632 -13.67346 9.585163 9.343828 3.425737 -19.11783 -2.583158 -93.5633 26.39719 24.6752 0 0 -14.28188 3.912325 12.60759 8.850836
2.737489 111.6332 76.65537 0.4842738 -6.513574 -1.355129 4.797538 9.76884 3.048703 -0 8.474135 -0 -5.276104 -12.1688 -1.959487 0.7818589 -20.55221 -3.954666 -0 40.14766 -0 -4.142429 -5.779242 18.42584 -3.114781 -2.154795 6.395892 1.562268 10.28786 -5.957997 0.1672477 22.76632 5.933144 2.417488 -22.0823 6.755679 5.146681 -19.74782 11.73469 82.68419 36.84672 -13.3964 -0 0 15.16683 -16.3528 9.935855 11.13935 3.137218 -18.81572 -2.554772 -93.20242 26.07939 25.19596 0 0 -14.16195 2.921447 11.57331 9.804241
2.899897 111.2517 82.05261 0.02989732 -6.285246 -2.025358 4.950193 12.9505 2.602767 -0 8.253208 -0 -5.158581 -14.30906 -1.536327 1.999919 -23.28663 -3.196117 -0 30.38925 -0 -4.094322 -5.983631 19.24415 -3.251582 -1.901784 6.987883 1.140462 10.34083 -5.561668 0.04310572 22.53488 6.068847 2.680232 -21.4761 6.293677 4.735491 -20.38481 11.94273 81.2931 36.67957 -11.14763 -0 0 16.52036 -19.33588 10.4721 12.96037 3.063998 -18.63777 -2.400298 -92.78267 25.36483 25.73348 0 0 -14.31735 2.188001 10.27781 10.65722
3.144733 110.5738 87.64701 -0.3893228 -6.132995 -2.694857 4.883416 15.56399 2.165716 -0 9.054228 -0 -5.02906 -15.78134 -1.248726 2.563837 -24.59485 -3.027542 -0 22.48281 -0 -4.113227 -6.177753 19.82537 -3.236873 -1.604729 7.651845 0.6838801 10.44549 -5.174394 0.05457314 22.11908 6.206874 2.981446 -20.95121 5.964775 4.286182 -21.08101 12.14775 80.0631 36.0197 -9.137679 -0 0 18.18925 -22.25266 11.12412 14.52869 3.173636 -18.4811 -2.188357 -92.47646 24.38836 26.3077 0 0 -14.41139 1.665397 8.96294 11.39608
